<!-- Downstairs by corpus delicti from <a href="https://thenounproject.com/browse/icons/term/downstairs/" target="_blank" title="Downstairs Icons">Noun Project</a> (CC BY 3.0) -->
<svg xmlns="http://www.w3.org/2000/svg" xmlns:xlink="http://www.w3.org/1999/xlink" version="1.1" x="0px" y="0px" viewBox="0 0 119.5 119.5" xml:space="preserve" fill="#ffffff">
	<g>
		<circle cx="35.058" cy="12.842" r="10.841"/>
		<path d="M107.534,27.041l-13.527,0.004l17.281-17.282c1.562-1.562,1.562-4.095,0-5.657c-0.78-0.78-1.805-1.172-2.828-1.172   s-2.048,0.392-2.828,1.171L88.349,21.388L88.353,7.86l-8.143,8.144v19.18h19.182L107.534,27.041z"/>
		<path d="M112.927,77.572H88.26v0.041h-0.055v12.71H67.576v0.041h-0.056v12.756h-5.678c0.481-0.783,0.773-1.696,0.773-2.684   c-0.209-1.406-0.724-2.637-1.544-3.691c-6.544-7.405-10.57-12.11-10.863-15.393c-0.286-3.204,1.417-5.812,7.143-12.978   c3.274-4.477,3.851-8.534,1.777-13.834c-1.883-5.491-2.691-8.128-4.951-13.89l6.783,4.083c2.199,4.397,3.497,8.521,5.185,13.412   c1.781,5.166,6.836,8.506,8.717,3.113c0.985-2.826-1.993-10.564-3.455-15.16c-0.999-3.14-2.686-8.234-6.024-10.104   c-6.962-3.898-16.97-11.579-22.745-10.803c-13.221,1.778-14.324,17.222-17.176,24.191c-2.126,5.197-11.898,9.909-16.601,12.918   c1.13-0.727,2.002-1.287-0.06,0.036c-3.166,2.035-1.442,0.929-0.02,0.015c-5.727,3.706,0.436,9.782,5.856,6.296   c3.389-2.178,6.779-4.354,10.166-6.533c2.17-1.392,7.03-3.552,8.048-6.042c1.603-2.309,2.366-5.784,3.435-8.395   c1.654,5.658,3.306,11.315,4.961,16.974c-0.579,1.937-1.174,3.993-1.798,6.25l-10.242,33.94c-3.288,6.449,6.597,11.281,9.801,4.993   l5.114-16.228c2.037,2.816,4.855,6.03,7.9,9.482l-5.094,0.03v0.041h-0.055v12.667l-40-0.001v4l43.942,0.001v-0.001h0.058V107.12   h20.723l-0.078-12.797h20.723l-0.038-12.751h20.722V77.572L112.927,77.572z"/>
	</g>
</svg>