<svg viewBox="0 0 128 128" xmlns="http://www.w3.org/2000/svg" xmlns:svg="http://www.w3.org/2000/svg">
	<defs>
		<linearGradient id="dark-gradient">
			<stop offset="0%" stop-color="#05356c" ></stop>
			<stop offset="37%" stop-color="#1648ad" ></stop>
			<stop offset="100%" stop-color="#087990" ></stop>
		</linearGradient>
	</defs>

	<g class="layer">
		<path d="m55.07,4.81a16,16 0 0 1 16,0l39.43,22.76a16,16 0 0 1 8,13.86l0,45.52a16,16 0 0 1 -8,13.86l-39.43,22.76a16,16 0 0 1 -16,0l-39.43,-22.76a16,16 0 0 1 -8,-13.86l0,-45.52a16,16 0 0 1 8,-13.86" fill="url(#dark-gradient)" id="svg_1" stroke="#27d7be" stroke-width="5" transform="matrix(1, 0, 0, 1, 0, 0)"/>
		<path d="m15.31,27.73l39.85,-22.93l-39.85,22.93z" fill="none" fill-opacity="null" id="svg_2" stroke="#27d7be" stroke-dasharray="null" stroke-linecap="null" stroke-linejoin="null" stroke-opacity="null" stroke-width="5"/>
	</g>
</svg>