<?xml version="1.0" encoding="UTF-8" standalone="no"?>
<!DOCTYPE svg PUBLIC "-//W3C//DTD SVG 20010904//EN"
              "http://www.w3.org/TR/2001/REC-SVG-20010904/DTD/svg10.dtd">

<svg xmlns="http://www.w3.org/2000/svg"
     width="1.43333in" height="1.43333in"
     viewBox="0 0 430 430">
  <path id="Auswahl #1"
        fill="currentColor"
        d="M -2.00,308.07
           C 4.57,311.08 9.43,312.54 16.00,308.07
             21.48,304.48 21.11,301.14 28.00,300.00
             33.26,320.98 57.74,320.98 63.00,300.00
             68.41,303.34 74.35,318.94 88.00,312.43
             91.40,310.81 94.11,308.01 96.32,305.02
             97.44,303.51 98.72,300.62 100.92,300.61
             103.39,300.59 104.60,304.15 107.21,306.90
             110.86,310.74 116.63,313.46 122.00,312.66
             126.04,312.05 130.00,309.84 132.79,306.90
             136.34,303.15 136.60,299.19 142.95,300.15
             147.02,300.76 147.78,304.18 150.22,306.99
             153.70,310.98 158.44,314.37 164.00,313.63
             168.78,313.00 172.69,309.65 175.59,306.00
             178.05,302.91 179.06,299.25 183.97,300.33
             189.50,301.55 192.96,311.98 204.00,310.80
             208.50,310.32 211.67,307.97 214.83,304.93
             217.04,302.80 219.27,299.55 222.84,300.65
             226.23,301.71 230.86,309.79 239.00,308.62
             246.44,307.56 248.55,300.95 254.03,300.15
             260.29,299.24 262.13,303.94 267.00,306.59
             276.02,311.50 284.29,307.77 290.00,300.00
             290.00,300.00 293.00,300.00 293.00,300.00
             297.15,307.71 304.67,312.95 312.98,307.30
             317.10,304.50 317.95,301.17 321.20,300.30
             327.76,298.53 330.74,306.79 339.00,306.79
             345.78,306.79 350.13,300.54 353.00,300.58
             356.77,300.64 360.25,310.01 368.00,308.54
             376.26,306.98 374.44,299.21 385.00,300.06
             392.80,300.69 394.30,309.00 402.00,307.54
             407.94,306.42 410.62,299.66 414.63,300.72
             417.49,301.47 420.85,309.63 429.00,309.63
             439.07,309.63 439.51,299.24 446.98,300.16
             453.62,300.99 456.56,312.42 468.00,310.66
             476.42,309.36 477.94,302.26 485.00,300.00
             488.69,308.09 493.66,313.06 503.00,311.00
             503.00,311.00 503.00,325.00 503.00,325.00
             503.00,325.00 -2.00,325.00 -2.00,325.00
             -2.00,325.00 -2.00,308.07 -2.00,308.07 Z" />
  <path id="Auswahl"
        fill="currentColor"
        d="M 20.00,190.00
           C 20.39,181.69 24.79,167.27 27.28,159.00
             29.63,151.20 36.00,130.34 39.32,124.00
             39.32,124.00 53.53,99.00 53.53,99.00
             53.53,99.00 59.04,89.93 59.04,89.93
             60.27,83.91 51.78,84.70 44.04,76.96
             31.35,64.26 34.02,42.18 50.00,33.41
             54.19,31.12 64.28,28.28 68.57,31.17
             70.75,32.64 71.91,37.37 73.48,40.00
             76.93,45.77 83.09,51.11 90.00,51.80
             96.16,52.42 102.17,48.52 108.00,46.77
             116.68,44.17 127.48,44.33 136.00,47.44
             150.97,52.90 150.57,55.93 161.00,65.96
             161.00,65.96 173.00,77.00 173.00,77.00
             177.02,81.00 181.52,85.89 186.00,89.24
             191.12,93.07 201.82,99.92 205.00,105.01
             205.00,105.01 210.60,119.00 210.60,119.00
             211.17,121.86 210.32,124.02 211.58,126.72
             211.58,126.72 218.72,138.00 218.72,138.00
             218.72,138.00 244.58,182.00 244.58,182.00
             244.58,182.00 254.83,200.00 254.83,200.00
             256.37,203.30 257.01,207.04 259.42,209.89
             262.70,213.77 266.25,214.39 271.00,213.32
             277.34,211.89 281.09,208.16 287.00,205.95
             298.58,201.63 321.55,205.64 319.80,222.00
             319.11,228.45 314.99,232.37 309.00,234.22
             304.14,235.71 295.26,238.09 294.06,244.04
             293.65,246.07 295.09,250.84 295.63,253.00
             295.63,253.00 299.63,270.00 299.63,270.00
             299.63,270.00 309.12,309.00 309.12,309.00
             309.12,309.00 314.74,332.00 314.74,332.00
             314.74,332.00 318.54,348.00 318.54,348.00
             319.06,350.85 318.95,354.36 320.89,356.68
             324.03,360.43 331.83,356.92 336.00,355.87
             336.00,355.87 365.00,348.63 365.00,348.63
             368.15,347.84 377.61,345.68 379.94,344.43
             385.12,341.67 383.35,338.04 385.57,334.15
             386.41,332.69 387.73,331.25 389.55,332.17
             391.39,333.10 392.16,336.51 396.04,339.50
             399.45,342.13 404.92,343.47 409.00,345.00
             401.23,349.62 394.65,348.05 387.00,350.34
             387.00,350.34 337.00,365.57 337.00,365.57
             337.00,365.57 324.00,368.71 324.00,368.71
             324.00,368.71 308.00,372.74 308.00,372.74
             303.37,373.63 297.66,374.06 294.58,378.13
             293.44,379.64 293.05,381.23 292.55,383.00
             289.85,392.45 293.09,395.27 296.00,403.77
             291.08,405.40 276.50,405.85 272.01,403.77
             268.77,401.88 266.50,398.81 263.95,396.28
             260.38,392.74 257.77,390.34 257.20,385.00
             255.95,373.31 268.52,367.76 278.00,365.50
             283.18,364.27 289.85,364.66 291.17,358.00
             291.81,354.73 286.99,339.22 285.85,335.00
             285.85,335.00 270.88,280.00 270.88,280.00
             269.45,274.54 266.54,258.70 261.87,256.02
             257.43,253.48 251.35,256.27 247.00,257.56
             247.00,257.56 216.00,265.13 216.00,265.13
             216.00,265.13 147.00,281.56 147.00,281.56
             147.00,281.56 132.00,283.17 132.00,283.17
             126.06,283.83 125.09,284.91 118.00,285.00
             118.00,285.00 98.00,286.00 98.00,286.00
             98.00,286.00 86.00,286.00 86.00,286.00
             79.70,286.03 73.27,287.80 67.00,286.67
             62.81,285.92 58.43,283.49 57.47,279.00
             55.23,268.52 70.44,267.60 77.00,266.71
             77.00,266.71 92.00,263.60 92.00,263.60
             92.00,263.60 127.00,256.40 127.00,256.40
             132.75,255.21 139.40,251.88 139.56,245.00
             139.66,241.25 132.59,229.79 130.42,226.00
             130.42,226.00 113.15,196.00 113.15,196.00
             107.97,186.98 103.59,182.03 104.04,171.00
             104.34,163.54 106.19,162.17 108.97,156.00
             108.97,156.00 111.90,148.00 111.90,148.00
             111.90,148.00 118.24,136.00 118.24,136.00
             119.67,133.10 124.74,124.01 123.60,121.23
             122.43,118.37 119.36,118.29 117.00,119.64
             112.72,122.08 112.74,125.01 104.00,129.00
             104.61,131.63 105.39,134.25 103.40,136.57
             100.35,140.12 94.07,138.64 93.44,133.96
             93.12,131.55 95.00,128.19 96.00,126.00
             92.13,124.96 91.33,124.89 90.00,121.00
             95.93,120.99 99.63,121.33 103.60,115.98
             104.68,114.52 105.59,112.98 104.89,111.13
             103.95,108.63 94.66,103.48 92.00,103.00
             90.48,102.51 84.68,102.86 83.04,103.00
             78.06,104.01 70.93,114.89 67.61,119.00
             67.61,119.00 51.67,142.00 51.67,142.00
             46.43,149.85 36.88,163.31 36.72,173.00
             36.68,175.22 37.55,177.79 38.00,180.00
             32.38,181.69 30.95,184.72 29.00,190.00
             24.59,188.87 24.41,188.65 20.00,190.00 Z
           M 167.00,144.33
           C 160.36,145.96 156.01,149.66 151.00,154.17
             147.96,156.91 137.57,166.91 136.02,170.00
             134.65,172.74 135.11,176.02 134.91,179.00
             134.91,179.00 134.39,186.00 134.39,186.00
             134.90,192.78 142.37,208.95 145.20,216.00
             145.20,216.00 153.00,235.00 153.00,235.00
             155.75,241.86 156.95,247.72 166.00,246.50
             166.00,246.50 186.00,240.00 186.00,240.00
             186.00,240.00 228.00,226.00 228.00,226.00
             232.19,224.60 246.97,221.19 244.84,214.98
             243.94,212.38 229.92,197.13 227.07,194.00
             227.07,194.00 200.28,164.00 200.28,164.00
             189.74,151.97 184.77,142.36 167.00,144.33 Z" />
</svg>
