<svg xmlns="http://www.w3.org/2000/svg"
     width="1.16667in" height="1.16667in"
     viewBox="0 0 350 350">
  <path fill="currentColor"
        d="M 338.76,340.16
           C 342.62,347.86 351.96,355.52 359.67,351.67
             367.20,347.90 366.79,341.50 363.00,334.00
             359.51,327.24 358.34,322.72 353.33,317.00
             345.68,308.26 335.36,294.00 316.67,294.00
             307.40,294.00 301.61,297.93 294.67,301.33
             287.82,304.68 280.81,308.68 274.33,312.67
             261.36,320.65 249.32,332.33 238.67,332.33
             232.76,332.33 224.53,330.41 222.00,325.33
             220.22,321.74 217.54,314.70 211.67,309.67
             204.79,303.77 200.61,298.00 190.00,298.00
             171.99,298.00 159.19,303.97 144.67,313.67
             132.45,321.81 124.22,330.33 114.00,330.33
             109.03,330.33 103.34,327.40 102.33,326.67
             100.05,325.01 94.95,319.68 93.50,317.25
             90.64,312.47 88.30,309.13 84.25,305.25
             78.38,299.62 75.76,296.75 65.75,296.75
             56.66,296.75 50.50,299.84 43.25,303.25
             35.84,306.74 28.35,311.75 22.50,316.00
             15.32,321.22 10.06,324.74 3.75,331.00
             -2.35,337.10 -5.10,340.15 1.00,346.25
             7.10,352.35 14.03,350.29 20.13,344.20
             25.29,339.10 30.96,334.43 36.82,330.17
             41.72,326.61 46.95,323.30 51.98,320.94
             60.80,316.79 65.87,317.58 71.01,325.82
             73.58,329.92 77.59,336.08 84.22,340.91
             91.27,346.03 99.97,348.77 110.62,348.77
             131.01,348.77 146.20,338.63 157.32,331.21
             166.77,324.90 176.86,317.54 188.71,317.54
             194.29,317.54 195.74,319.67 198.17,324.53
             201.05,330.31 204.33,335.87 209.30,340.13
             216.18,346.03 224.96,348.77 235.57,348.77
             256.16,348.77 273.33,338.47 285.74,330.84
             291.36,327.37 296.91,323.74 302.85,320.83
             307.86,318.37 311.22,317.54 313.67,317.54
             318.41,317.54 324.21,320.95 330.23,327.82
             333.51,331.57 336.44,335.74 338.76,340.16 Z" />
  <path fill="currentColor"
        d="M 14.00,162.00
           C 14.43,152.63 17.94,142.02 20.58,133.00
             24.04,121.16 28.74,104.76 34.26,94.00
             34.26,94.00 46.72,72.00 46.72,72.00
             47.89,69.95 51.66,63.94 51.87,62.00
             52.50,56.21 44.11,55.35 37.10,47.96
             25.26,35.46 28.64,13.44 44.00,5.40
             48.48,3.06 58.21,0.27 62.61,3.74
             64.88,5.53 66.33,9.50 67.96,12.00
             71.39,17.24 77.55,22.81 84.00,23.63
             89.27,24.31 97.40,19.92 103.00,18.48
             112.97,15.92 123.45,16.59 133.00,20.45
             146.12,25.75 154.02,36.23 163.96,45.91
             169.79,51.59 175.49,57.33 182.00,62.25
             187.40,66.33 195.49,71.25 198.93,77.00
             203.99,85.48 204.75,95.80 206.91,100.00
             206.91,100.00 216.58,116.00 216.58,116.00
             216.58,116.00 240.58,157.00 240.58,157.00
             240.58,157.00 248.40,171.00 248.40,171.00
             250.21,174.68 251.32,178.84 254.22,181.87
             257.41,185.20 260.56,186.14 265.00,185.06
             270.67,183.67 275.55,179.92 281.00,177.96
             292.67,173.76 315.56,177.52 313.80,194.00
             312.08,210.08 290.65,204.72 288.60,217.00
             288.09,220.06 292.17,235.01 293.12,239.00
             293.12,239.00 305.00,291.00 305.00,291.00
             305.00,291.00 306.81,295.97 306.81,295.97
             306.81,295.97 300.12,299.81 287.62,305.50
             287.62,305.50 280.88,309.19 280.88,309.19
             280.88,309.19 276.42,295.00 276.42,295.00
             276.42,295.00 265.13,253.00 265.13,253.00
             263.41,246.12 261.05,232.62 254.96,228.60
             250.81,225.87 245.31,228.38 241.00,229.58
             241.00,229.58 209.00,237.42 209.00,237.42
             209.00,237.42 161.00,248.88 161.00,248.88
             161.00,248.88 142.00,253.39 142.00,253.39
             142.00,253.39 127.00,255.15 127.00,255.15
             127.00,255.15 116.00,256.96 116.00,256.96
             116.00,256.96 106.00,256.96 106.00,256.96
             106.00,256.96 82.00,258.00 82.00,258.00
             74.72,258.01 63.44,260.61 57.02,257.43
             50.20,254.05 49.29,246.19 56.04,242.09
             60.04,239.66 69.96,238.80 75.00,237.80
             75.00,237.80 116.00,229.35 116.00,229.35
             122.10,227.95 132.56,225.44 133.04,217.59
             133.31,213.05 126.55,202.21 124.15,198.00
             124.15,198.00 107.99,170.00 107.99,170.00
             102.66,160.92 97.59,154.01 98.04,143.00
             98.36,135.11 107.36,116.50 111.30,109.00
             112.91,105.93 117.93,97.42 116.65,94.15
             115.66,91.63 113.22,91.42 111.00,92.37
             107.58,93.84 102.48,101.14 94.82,104.64
             95.33,107.42 97.08,111.14 94.64,113.27
             91.41,116.09 83.61,112.82 83.18,108.45
             82.94,105.98 85.29,102.93 86.36,100.82
             82.60,99.46 80.79,101.68 78.73,98.27
             83.45,98.17 98.90,90.70 97.95,84.09
             97.07,78.01 84.29,74.28 79.00,75.23
             71.91,76.50 65.49,86.49 61.37,92.00
             61.37,92.00 43.33,118.00 43.33,118.00
             35.70,129.47 29.45,137.75 32.00,152.00
             26.43,155.56 26.08,156.22 23.00,162.00
             23.00,162.00 14.00,162.00 14.00,162.00 Z
           M 161.00,116.33
           C 153.70,118.08 150.49,121.08 145.00,125.95
             140.44,129.99 132.84,136.54 130.17,142.00
             128.61,145.19 129.13,148.57 128.73,152.00
             128.75,154.57 128.26,156.37 128.73,159.00
             129.30,165.69 136.19,181.21 138.99,188.00
             138.99,188.00 149.99,213.95 149.99,213.95
             152.43,217.56 155.67,219.15 160.00,218.44
             160.00,218.44 179.00,212.33 179.00,212.33
             179.00,212.33 220.00,198.72 220.00,198.72
             224.82,197.27 236.94,194.49 238.26,188.96
             238.95,186.05 236.41,183.10 234.74,181.00
             234.74,181.00 222.42,167.00 222.42,167.00
             222.42,167.00 197.42,139.00 197.42,139.00
             186.78,126.69 179.19,114.32 161.00,116.33 Z
           M 88.12,104.88" />
</svg>
